<svg xmlns="http://www.w3.org/2000/svg" width="30" height="24" viewBox="0 0 30 24"><path d="M9.29 24c11.144 0 17.24-9.234 17.24-17.242 0-.262 0-.524-.017-.783 1.186-.858 2.21-1.92 3.023-3.137-1.106.49-2.28.81-3.48.953 1.265-.753 2.212-1.944 2.664-3.35-1.19.708-2.49 1.206-3.848 1.47C22.994-.084 20.01-.573 17.592.72s-3.667 4.048-3.047 6.72c-4.873-.245-9.412-2.546-12.49-6.332-1.608 2.77-.786 6.31 1.877 8.09-.964-.03-1.908-.29-2.75-.76v.078c0 2.884 2.034 5.37 4.86 5.94-.89.243-1.827.28-2.735.104.794 2.468 3.07 4.16 5.66 4.208-2.144 1.687-4.795 2.602-7.524 2.6C.96 21.366.48 21.338 0 21.28c2.77 1.776 5.996 2.72 9.29 2.715"/></svg>