<svg xmlns="http://www.w3.org/2000/svg" width="24" height="24" viewBox="0 0 24 24"><path fill-rule="evenodd" d="M0 12c0 5.083 3.163 9.425 7.626 11.173-.105-.95-.2-2.405.042-3.443.218-.936 1.407-5.963 1.407-5.963s-.36-.72-.36-1.782c0-1.67.968-2.915 2.172-2.915 1.024 0 1.52.77 1.52 1.69 0 1.03-.657 2.57-.995 3.996-.283 1.194.6 2.17 1.776 2.17 2.133 0 3.773-2.25 3.773-5.496 0-2.873-2.06-4.882-5.01-4.882-3.413 0-5.42 2.56-5.42 5.207 0 1.032.4 2.138.896 2.74.098.117.113.222.083.343-.09.38-.294 1.194-.334 1.36-.052.22-.173.267-.4.16-1.5-.697-2.437-2.887-2.437-4.647 0-3.78 2.75-7.26 7.93-7.26 4.16 0 7.395 2.968 7.395 6.93 0 4.138-2.607 7.466-6.226 7.466-1.217 0-2.36-.632-2.75-1.378 0 0-.604 2.29-.75 2.852-.27 1.042-1.002 2.35-1.492 3.145C9.57 23.812 10.763 24 12 24c6.626 0 11.998-5.373 11.998-12s-5.372-12-12-12C5.373 0 0 5.373 0 12"/></svg>