<svg xmlns="http://www.w3.org/2000/svg" width="24" height="24" viewBox="0 0 24 24"><path fill-rule="evenodd" d="M11.996.008C8.738.008 8.33.02 7.05.08 5.773.138 4.9.34 4.138.637c-.79.307-1.458.717-2.125 1.384C1.347 2.69.936 3.36.63 4.15c-.297.76-.5 1.63-.558 2.908C.014 8.338 0 8.748 0 12.004s.014 3.666.072 4.946c.058 1.278.26 2.15.558 2.913.306.79.717 1.458 1.383 2.125.667.666 1.336 1.077 2.125 1.383.763.3 1.635.5 2.912.56 1.28.058 1.688.07 4.946.07s3.667-.012 4.946-.07c1.277-.06 2.15-.26 2.912-.56.79-.304 1.458-.715 2.125-1.38.663-.668 1.073-1.337 1.38-2.126.296-.763.5-1.635.557-2.912.06-1.28.07-1.687.07-4.945s-.012-3.667-.07-4.946c-.06-1.277-.26-2.15-.558-2.912-.308-.79-.718-1.458-1.385-2.125C21.31 1.356 20.64.946 19.852.64c-.762-.3-1.632-.502-2.91-.56-1.28-.06-1.688-.072-4.946-.072zm0 2.16c3.203 0 3.583.013 4.848.07 1.17.054 1.805.25 2.227.414.56.218.96.478 1.38.897.42.42.68.82.9 1.38.165.42.36 1.054.414 2.223.06 1.265.07 1.645.07 4.848s-.01 3.583-.07 4.848c-.052 1.17-.248 1.805-.412 2.23-.217.56-.477.957-.896 1.377-.42.42-.82.68-1.38.898-.42.164-1.057.36-2.226.413-1.265.055-1.644.07-4.848.07-3.204 0-3.583-.015-4.848-.07-1.17-.056-1.806-.25-2.23-.415-.56-.217-.958-.477-1.378-.897-.42-.42-.68-.82-.898-1.38-.164-.422-.36-1.057-.413-2.227-.056-1.264-.07-1.643-.07-4.846 0-3.203.014-3.583.07-4.848.055-1.17.25-1.805.414-2.227.217-.56.477-.96.897-1.38.42-.42.82-.68 1.38-.9.422-.163 1.057-.36 2.227-.412 1.264-.06 1.643-.07 4.846-.07zm.448 14.315c-2.23 0-4.04-1.808-4.04-4.04 0-2.23 1.81-4.038 4.04-4.038s4.04 1.81 4.04 4.04-1.81 4.038-4.04 4.038zm0-10.26c-3.436 0-6.222 2.785-6.222 6.22 0 3.438 2.786 6.224 6.222 6.224 3.437 0 6.223-2.786 6.223-6.223 0-3.436-2.786-6.222-6.223-6.222zm7.112-.445c0 .736-.597 1.333-1.334 1.333-.736 0-1.333-.593-1.333-1.33 0-.736.593-1.333 1.33-1.333.736 0 1.333.597 1.333 1.334"/></svg>