<svg xmlns="http://www.w3.org/2000/svg" width="24" height="24" viewBox="0 0 24 24"><path fill-rule="evenodd" d="M18.708 15.438c-.16.614-.636 1.1-1.238 1.263-1.092.3-5.47.3-5.47.3s-4.378 0-5.47-.3c-.602-.16-1.076-.645-1.237-1.26C5 14.325 5 12 5 12s0-2.325.293-3.44c.16-.613.635-1.098 1.237-1.262C7.622 7 12 7 12 7s4.378 0 5.47.298c.602.164 1.077.65 1.238 1.263C19 9.68 19 12 19 12s0 2.324-.292 3.438zM12 0C5.373 0 0 5.372 0 12c0 6.626 5.373 12 12 12 6.628 0 12-5.374 12-12 0-6.628-5.372-12-12-12zm-1.4 14.142L14.238 12 10.6 9.856v4.285z"/></svg>