<svg xmlns="http://www.w3.org/2000/svg" width="24" height="24"><path d="M19.47 11a16.73 16.73 0 0 0-.41-3h2.1c.41.93.68 1.94.8 3h-2.48zm1.7 5h-2.1a16.73 16.73 0 0 0 .41-3h2.48c-.1 1.06-.38 2.07-.8 3h0zm-3.84 4.45c.46-.73.85-1.55 1.17-2.45h1.5c-.73.98-1.63 1.8-2.67 2.45h0zM13 16v-3h4.46a15.06 15.06 0 0 1-.479 3H13zm0 5.82V18h3.32c-.8 1.88-1.94 3.34-3.32 3.82h0zM13 8h3.98a15.06 15.06 0 0 1 .479 3H13V8zm0-5.82c1.38.48 2.53 1.94 3.32 3.82H13V2.18zM19.99 6h-1.5c-.32-.9-.7-1.72-1.17-2.45 1.04.65 1.94 1.47 2.67 2.45h0zM7.68 18H11v3.82c-1.38-.48-2.53-1.94-3.32-3.82h0zm-1.14-5H11v3H7.02c-.26-.97-.42-2-.48-3h0zM4 18h1.5a12.34 12.34 0 0 0 1.17 2.45C5.64 19.8 4.74 18.98 4 18h0zm-1.17-2c-.4-.93-.68-1.94-.8-3h2.48a16.64 16.64 0 0 0 .41 3h-2.1zm0-8h2.1a16.64 16.64 0 0 0-.41 3H2.05c.1-1.06.38-2.07.8-3h0zm3.84-4.45A12.34 12.34 0 0 0 5.51 6H4c.73-.98 1.63-1.8 2.67-2.45h0zM11 8v3H6.54c.06-1 .22-2.03.48-3H11zm0-5.82V6H7.68c.8-1.88 1.94-3.34 3.32-3.82h0zM23.96 11a11.93 11.93 0 0 0-.65-3 10.95 10.95 0 0 0-.909-2C20.48 2.7 17.02.37 13 .04 12.67.01 12.34 0 12 0s-.67.01-1 .04C6.98.37 3.52 2.7 1.6 6a10.95 10.95 0 0 0-.909 2 11.93 11.93 0 0 0-.651 3c-.03.33-.04.66-.04 1s.01.67.04 1a11.93 11.93 0 0 0 .651 3 10.95 10.95 0 0 0 .909 2c1.92 3.3 5.38 5.63 9.4 5.96.33.03.66.04 1 .04s.67-.01 1-.04c4.02-.33 7.48-2.65 9.4-5.96a10.95 10.95 0 0 0 .909-2 11.93 11.93 0 0 0 .65-3c.03-.33.04-.66.04-1s-.01-.67-.04-1h0z" fill="#000" fill-rule="evenodd"/></svg>