<svg width="20" height="20" viewBox="0 0 20 20" fill="none" xmlns="http://www.w3.org/2000/svg">
<path fill-rule="evenodd" clip-rule="evenodd" d="M0.482424 0.000359941L0.567 0.00440733L10.231 1.32541L19.578 2.80041C19.821 2.83941 20 3.04841 20 3.29441V19.4994C20 19.7764 19.776 19.9994 19.5 19.9994H16.505C16.228 19.9994 16.005 19.7764 16.005 19.4994C16.005 19.2234 16.228 18.9994 16.505 18.9994H19V3.72241L10.086 2.31541L1 1.07241V18.9994H3.508C3.784 18.9994 4.008 19.2234 4.008 19.4994C4.008 19.7764 3.784 19.9994 3.508 19.9994H0.5C0.224 19.9994 0 19.7764 0 19.4994V0.499408C0 0.355408 0.0619995 0.217407 0.171 0.122407C0.279 0.0284074 0.427 -0.0145927 0.567 0.00440733L0.482424 0.000359941ZM10.1933 11.3726C12.1173 11.3726 14.0073 12.3866 14.0073 15.4756V19.9996H13.1293V15.4756C13.1293 13.0606 11.6283 12.2176 10.1593 12.2176C8.7753 12.2176 7.5603 13.0266 6.9023 14.1916V19.9996H6.0073V11.5756H6.9023V12.9426C7.7283 11.8956 9.0113 11.3726 10.1933 11.3726Z" fill="black"/>
</svg>
