<svg xmlns="http://www.w3.org/2000/svg" width="24" height="24"><path d="M24 4v15h-3v5l-7.143-5H6.43l2.857-2h5.202l.516.36L19 20.16V17h3V6h-2V4h4zm-5-4v15h-8.857L3 20v-5H0V0h19zm-2 2H2v11h3v3.158L9.513 13H17V2zM9.394 9.593c.138 0 .27.026.395.077a.98.98 0 0 1 .325.214c.09.092.164.2.214.325s.077.256.077.396-.025.27-.077.396-.123.233-.214.325a.98.98 0 0 1-.325.214c-.124.05-.257.077-.395.077a1.04 1.04 0 0 1-.397-.077c-.124-.05-.232-.123-.324-.214a.99.99 0 0 1-.215-.325c-.05-.125-.076-.256-.076-.396s.025-.27.076-.396a.99.99 0 0 1 .215-.325c.092-.09.2-.163.324-.214a1.04 1.04 0 0 1 .397-.077zm.142-6.028a3.2 3.2 0 0 1 .952.138 2.34 2.34 0 0 1 .787.412c.227.183.407.41.54.682s.198.583.198.935c0 .213-.023.405-.067.577s-.12.344-.225.512-.246.34-.418.512a7.17 7.17 0 0 1-.654.566c-.17.132-.283.26-.34.385a.87.87 0 0 0-.088.374v.32H8.57v-.484c0-.22.03-.407.087-.56s.16-.297.297-.43l.567-.517.446-.412a2.11 2.11 0 0 0 .291-.364c.07-.113.104-.232.104-.357 0-.242-.075-.43-.225-.566s-.34-.203-.567-.203c-.344 0-.606.094-.786.285a1.11 1.11 0 0 0-.302.693l-1.695-.1c.08-.777.367-1.37.86-1.777s1.122-.6 1.89-.6z" fill="#000" fill-rule="evenodd"/></svg>